# File created by Blade
# Date/Time:  Thu Jan 22 18:25:17 2015
#---------------------------------------------------------
:version 1.10
:name HOM
:units
  mass 1.0
  length 1.000000
  angle deg
:documentation
     Acclaim Skeleton File
:root
   axis xyz
   order TX TY TZ RX RY RZ
   position 0.000000 0.000000 0.000000
   orientation 0 0 0
:bonedata
   begin
      id 1
      name RightUpLeg_dum
      direction -1.000000 0.000000 0.000000
      length 4.478084
      axis 0.0 0.0 0.0 xyz
   end
   begin
      id 2
      name LeftUpLeg_dum
      direction 1.000000 0.000000 0.000000
      length 4.478084
      axis 0.0 0.0 0.0 xyz
   end
   begin
      id 3
      name Spine_dum
      direction 0.000000 1.000000 0.000000
      length 6.068208
      axis 0.0 0.0 0.0 xyz
   end
   begin
      id 4
      name RightUpLeg
      direction 0.000000 -1.000000 0.000000
      length 16.405774
      axis 0.0 0.0 0.0 xyz
      dof rx ry rz
   end
   begin
      id 5
      name RightLeg
      direction 0.000000 -1.000000 0.000000
      length 14.644143
      axis 0.0 0.0 0.0 xyz
      dof rx ry rz
   end
   begin
      id 6
      name RightFoot
      direction 0.000000 -0.258819 0.965926
      length 5.806150
      axis 15.0 0.0 0.0 xyz
      dof rx ry rz
   end
   begin
      id 7
      name RightToeBase
      direction 0.000000 0.000000 1.000000
      length 2.952750
      axis 0.0 0.0 0.0 xyz
      dof rx ry rz
   end
   begin
      id 8
      name LeftUpLeg
      direction 0.000000 -1.000000 0.000000
      length 16.405774
      axis 0.0 0.0 0.0 xyz
      dof rx ry rz
   end
   begin
      id 9
      name LeftLeg
      direction 0.000000 -1.000000 0.000000
      length 14.644143
      axis 0.0 0.0 0.0 xyz
      dof rx ry rz
   end
   begin
      id 10
      name LeftFoot
      direction 0.000000 -0.258819 0.965926
      length 5.806150
      axis 15.0 0.0 0.0 xyz
      dof rx ry rz
   end
   begin
      id 11
      name LeftToeBase
      direction 0.000000 0.000000 1.000000
      length 2.952750
      axis 0.0 0.0 0.0 xyz
      dof rx ry rz
   end
   begin
      id 12
      name Spine
      direction 0.000000 1.000000 0.000000
      length 0.000000
      axis 0.0 0.0 0.0 xyz
      dof rx ry rz
   end
   begin
      id 13
      name Spine_dum1
      direction 0.000000 1.000000 0.000000
      length 10.013923
      axis 0.0 0.0 0.0 xyz
   end
   begin
      id 14
      name Spine_dum2
      direction 0.000000 1.000000 0.000000
      length 10.013923
      axis 0.0 0.0 0.0 xyz
   end
   begin
      id 15
      name Spine_dum3
      direction 0.000000 1.000000 0.000000
      length 15.777476
      axis 0.0 0.0 0.0 xyz
   end
   begin
      id 16
      name RightShoulder
      direction -1.000000 0.000000 0.000000
      length 7.190220
      axis 0.0 0.0 90.0 xyz
      dof rx ry rz
   end
   begin
      id 17
      name RightArm
      direction -1.000000 0.000000 0.000000
      length 10.177469
      axis 0.0 0.0 90.0 xyz
      dof rx ry rz
   end
   begin
      id 18
      name RightForeArm
      direction -1.000000 0.000000 0.000000
      length 8.392114
      axis 0.0 0.0 90.0 xyz
      dof ry rz rx
   end
   begin
      id 19
      name RightHand
      direction -1.000000 0.000000 0.000000
      length 0.000000
      axis 0.0 0.0 90.0 xyz
      dof rx ry rz
   end
   begin
      id 20
      name RightHand_dum1
      direction -1.000000 0.000000 0.000000
      length 3.937000
      axis 0.0 0.0 90.0 xyz
   end
   begin
      id 21
      name RightHand_dum2
      direction 0.000000 0.000000 0.000000
      length 0.000000
      axis 0.0 0.0 90.0 xyz
   end
   begin
      id 22
      name RightHandThumb1
      direction 0.000000 0.000000 1.000000
      length 3.937000
      axis 0.0 0.0 90.0 xyz
      dof rx rz ry
   end
   begin
      id 23
      name LeftShoulder
      direction 1.000000 0.000000 0.000000
      length 7.190220
      axis 0.0 0.0 -90.0 xyz
      dof rx ry rz
   end
   begin
      id 24
      name LeftArm
      direction 1.000000 0.000000 0.000000
      length 10.177469
      axis 0.0 0.0 -90.0 xyz
      dof rx ry rz
   end
   begin
      id 25
      name LeftForeArm
      direction 1.000000 0.000000 0.000000
      length 8.392114
      axis 0.0 0.0 -90.0 xyz
      dof ry rz rx
   end
   begin
      id 26
      name LeftHand
      direction 1.000000 0.000000 0.000000
      length 0.000000
      axis 0.0 0.0 -90.0 xyz
      dof rx ry rz
   end
   begin
      id 27
      name LeftHand_dum1
      direction 1.000000 0.000000 0.000000
      length 3.937000
      axis 0.0 0.0 -90.0 xyz
   end
   begin
      id 28
      name LeftHand_dum2
      direction 0.000000 0.000000 0.000000
      length 0.000000
      axis 0.0 0.0 -90.0 xyz
   end
   begin
      id 29
      name LeftHandThumb1
      direction 0.000000 0.000000 1.000000
      length 3.937000
      axis 0.0 0.0 -90.0 xyz
      dof rx rz ry
   end
   begin
      id 30
      name Head
      direction 0.000000 1.000000 0.000000
      length 4.527550
      axis 0.0 0.0 0.0 xyz
      dof rx ry rz
   end
:hierarchy
   begin
      root RightUpLeg_dum LeftUpLeg_dum Spine_dum
      RightUpLeg_dum RightUpLeg
      LeftUpLeg_dum LeftUpLeg
      Spine_dum Spine
      RightUpLeg RightLeg
      RightLeg RightFoot
      RightFoot RightToeBase
      LeftUpLeg LeftLeg
      LeftLeg LeftFoot
      LeftFoot LeftToeBase
      Spine Spine_dum1 Spine_dum2 Spine_dum3
      Spine_dum1 RightShoulder
      Spine_dum2 LeftShoulder
      Spine_dum3 Head
      RightShoulder RightArm
      RightArm RightForeArm
      RightForeArm RightHand
      RightHand RightHand_dum1 RightHand_dum2
      RightHand_dum2 RightHandThumb1
      LeftShoulder LeftArm
      LeftArm LeftForeArm
      LeftForeArm LeftHand
      LeftHand LeftHand_dum1 LeftHand_dum2
      LeftHand_dum2 LeftHandThumb1
   end

# File created by Blade
# Date/Time:  Thu Jan 22 18:25:10 2015
# Frame Rate: 120.000 fps
#------------------------------------------------------
:FULLY-SPECIFIED
:DEGREES
1111
root -2.724199 33.176417 0.560175 4.787819 -1.810452 3.004552
RightUpLeg 2.725828 -4.604447 -2.894549
RightLeg 1.216991 -0.000000 -0.000000
RightFoot -12.780355 -4.339330 3.579115
RightToeBase 5.444932 -0.000000 -0.000000
LeftUpLeg 2.429748 3.017109 0.208303
LeftLeg 2.749920 -0.000000 -0.000000
LeftFoot -11.618778 2.693099 -9.718300
LeftToeBase 8.263440 -0.000000 -0.000000
Spine -10.479955 -1.913930 -0.817749
RightShoulder -19.658983 16.004810 -58.328236
RightArm 67.326918 51.939425 52.197793
RightForeArm 29.714719 -0.000000 54.842794
RightHand 7.017093 -0.000000 -1.007310
RightHandThumb1 -24.326973 -0.000000 -32.862282
LeftShoulder -24.702937 -15.801971 57.115858
LeftArm 68.956478 -60.720412 -54.016075
LeftForeArm -7.136283 -0.000000 56.589087
LeftHand -9.760595 -0.000000 12.811420
LeftHandThumb1 -26.253704 0.000000 33.147579
Head 26.377060 5.358641 1.856404
1112
root -2.722996 33.176315 0.562129 4.778681 -1.817967 3.008683
RightUpLeg 2.741343 -4.628323 -2.905554
RightLeg 1.208363 -0.000000 -0.000000
RightFoot -12.778881 -4.299522 3.586640
RightToeBase 5.441958 -0.000000 -0.000000
LeftUpLeg 2.433241 3.033441 0.201743
LeftLeg 2.771956 -0.000000 -0.000000
LeftFoot -11.642138 2.709344 -9.654071
LeftToeBase 8.296821 -0.000000 -0.000000
Spine -10.481481 -1.871718 -0.785452
RightShoulder -19.669866 15.968424 -58.436567
RightArm 67.483845 51.837181 51.933763
RightForeArm 30.186706 -0.000000 55.382636
RightHand 7.229616 -0.000000 -0.134402
RightHandThumb1 -24.326973 -0.000000 -32.862282
LeftShoulder -24.776643 -15.732079 57.183194
LeftArm 69.342057 -60.973292 -54.344970
LeftForeArm -6.888198 -0.000000 57.992946
LeftHand -9.967089 -0.000000 13.251134
LeftHandThumb1 -26.253704 0.000000 33.147579
Head 26.724816 5.175543 1.779725
1113
root -2.721989 33.176014 0.564062 4.767366 -1.816648 3.013812
RightUpLeg 2.759180 -4.640638 -2.912911
RightLeg 1.203190 -0.000000 -0.000000
RightFoot -12.785583 -4.295860 3.585341
RightToeBase 5.455576 -0.000000 -0.000000
LeftUpLeg 2.438538 3.035826 0.196193
LeftLeg 2.791695 -0.000000 -0.000000
LeftFoot -11.655190 2.701578 -9.651126
LeftToeBase 8.329881 -0.000000 -0.000000
Spine -10.484551 -1.849002 -0.747829
RightShoulder -19.656586 15.931232 -58.542604
RightArm 67.667407 51.776526 51.695358
RightForeArm 30.663806 -0.000000 55.928963
RightHand 7.479303 0.000000 0.802965
RightHandThumb1 -24.326973 -0.000000 -32.862282
LeftShoulder -24.841249 -15.649837 57.244649
LeftArm 69.873742 -61.227128 -54.866301
LeftForeArm -6.525789 -0.000000 59.470356
LeftHand -10.016214 -0.000000 13.314413
LeftHandThumb1 -26.253704 0.000000 33.147579
Head 27.091772 5.087000 1.722115
1114
root -2.719309 33.175671 0.562912 4.772419 -1.782616 3.017515
RightUpLeg 2.755476 -4.669596 -2.920109
RightLeg 1.209123 -0.000000 -0.000000
RightFoot -12.789524 -4.293152 3.570604
RightToeBase 5.441780 -0.000000 -0.000000
LeftUpLeg 2.408315 2.996031 0.188807
LeftLeg 2.827948 -0.000000 -0.000000
LeftFoot -11.677121 2.708960 -9.643044
LeftToeBase 8.348707 -0.000000 -0.000000
Spine -10.492261 -1.851658 -0.698952
RightShoulder -19.661356 15.934075 -58.656211
RightArm 67.790025 51.689999 51.370189
RightForeArm 31.253911 -0.000000 56.528945
RightHand 7.579255 0.000000 1.328183
RightHandThumb1 -24.326973 -0.000000 -32.862282
LeftShoulder -24.942245 -15.755043 57.392418
LeftArm 69.933233 -61.372153 -54.947202
LeftForeArm -6.254604 -0.000000 60.994354
LeftHand -10.045290 -0.000000 13.453911
LeftHandThumb1 -26.253704 0.000000 33.147579
Head 27.415737 4.979263 1.632823
1115
root -2.718390 33.175960 0.564582 4.755855 -1.768893 3.022440
RightUpLeg 2.774388 -4.686747 -2.927755
RightLeg 1.216444 -0.000000 -0.000000
RightFoot -12.796018 -4.286573 3.579750
RightToeBase 5.452293 -0.000000 -0.000000
LeftUpLeg 2.421038 2.995768 0.180206
LeftLeg 2.840250 -0.000000 -0.000000
LeftFoot -11.685815 2.712097 -9.674423
LeftToeBase 8.383431 -0.000000 -0.000000
Spine -10.486575 -1.825671 -0.671199
RightShoulder -19.658234 15.921538 -58.733231
RightArm 67.940913 51.644200 51.008038
RightForeArm 31.783518 -0.000000 57.087308
RightHand 7.636858 -0.000000 2.224675
RightHandThumb1 -24.326973 -0.000000 -32.862282
LeftShoulder -25.051829 -15.588150 57.505677
LeftArm 70.677150 -61.571160 -55.818255
LeftForeArm -5.823086 -0.000000 62.635819
LeftHand -10.142832 -0.000000 13.617992
LeftHandThumb1 -26.253704 0.000000 33.147579
Head 27.761397 4.836632 1.569817
1116
root -2.717884 33.175700 0.567699 4.741495 -1.749757 3.028201
RightUpLeg 2.799630 -4.697658 -2.935694
RightLeg 1.211896 -0.000000 -0.000000
RightFoot -12.800966 -4.289752 3.582743
RightToeBase 5.460371 -0.000000 -0.000000
LeftUpLeg 2.432516 2.976094 0.179901
LeftLeg 2.846993 -0.000000 -0.000000
LeftFoot -11.675623 2.700005 -9.648309
LeftToeBase 8.355534 -0.000000 -0.000000
Spine -10.479046 -1.807309 -0.632187
RightShoulder -19.693270 15.923707 -58.878902
RightArm 68.137600 51.567492 50.877575
RightForeArm 32.485688 -0.000000 57.705242
RightHand 7.791716 0.000000 2.486684
RightHandThumb1 -24.326973 -0.000000 -32.862282
LeftShoulder -25.103451 -15.715457 57.583760
LeftArm 70.800870 -61.717429 -55.874559
LeftForeArm -5.423631 -0.000000 64.190888
LeftHand -10.044074 0.000000 13.515937
LeftHandThumb1 -26.253704 0.000000 33.147579
Head 28.060053 4.750696 1.503525
1117
root -2.717089 33.176343 0.570633 4.713178 -1.729758 3.031900
RightUpLeg 2.830915 -4.716069 -2.944551
RightLeg 1.227314 -0.000000 -0.000000
RightFoot -12.812101 -4.274766 3.590923
RightToeBase 5.467233 -0.000000 -0.000000
LeftUpLeg 2.464032 2.955195 0.177898
LeftLeg 2.844367 -0.000000 -0.000000
LeftFoot -11.665254 2.698653 -9.640874
LeftToeBase 8.335620 -0.000000 -0.000000
Spine -10.469229 -1.780242 -0.593521
RightShoulder -19.702499 15.879710 -58.969821
RightArm 68.374358 51.507378 50.565425
RightForeArm 32.862637 -0.000000 58.206933
RightHand 8.477165 0.000000 3.242407
RightHandThumb1 -24.326973 -0.000000 -32.862282
LeftShoulder -25.220669 -15.625339 57.661242
LeftArm 71.454919 -61.811855 -56.565575
LeftForeArm -4.884776 -0.000000 65.820656
LeftHand -10.349434 -0.000000 14.130898
LeftHandThumb1 -26.253704 0.000000 33.147579
Head 28.408786 4.637489 1.423834
1118
root -2.717149 33.175764 0.573118 4.705288 -1.702787 3.039288
RightUpLeg 2.846638 -4.731949 -2.953558
RightLeg 1.235110 -0.000000 -0.000000
RightFoot -12.834584 -4.272820 3.578357
RightToeBase 5.492958 -0.000000 -0.000000
LeftUpLeg 2.466927 2.969444 0.174787
LeftLeg 2.855901 -0.000000 -0.000000
LeftFoot -11.669205 2.663644 -9.639183
LeftToeBase 8.355974 -0.000000 -0.000000
Spine -10.476892 -1.763566 -0.566302
RightShoulder -19.745936 15.830045 -59.061893
RightArm 68.645439 51.442129 50.420092
RightForeArm 33.421406 0.000000 58.815369
RightHand 8.491886 -0.000000 3.482175
RightHandThumb1 -24.326973 -0.000000 -32.862282
LeftShoulder -25.270036 -15.627704 57.689222
LeftArm 71.877793 -61.948918 -56.882391
LeftForeArm -4.579216 -0.000000 67.391289
LeftHand -10.305861 -0.000000 14.183779
LeftHandThumb1 -26.253704 0.000000 33.147579
Head 28.711578 4.478999 1.336584
1119
root -2.716654 33.175528 0.575374 4.682960 -1.683315 3.050168
RightUpLeg 2.867051 -4.718866 -2.962889
RightLeg 1.249895 -0.000000 -0.000000
RightFoot -12.850804 -4.310820 3.593284
RightToeBase 5.460293 -0.000000 -0.000000
LeftUpLeg 2.488985 2.961722 0.167453
LeftLeg 2.856644 -0.000000 -0.000000
LeftFoot -11.647971 2.633040 -9.703211
LeftToeBase 8.276554 -0.000000 -0.000000
Spine -10.483067 -1.729196 -0.543134
RightShoulder -19.761003 15.763379 -59.146542
RightArm 68.960806 51.419550 50.346513
RightForeArm 34.220088 -0.000000 59.421498
RightHand 8.616672 -0.000000 4.140486
RightHandThumb1 -24.326973 -0.000000 -32.862282
LeftShoulder -25.338946 -15.421053 57.701683
LeftArm 72.727530 -62.084538 -57.717839
LeftForeArm -4.375164 -0.000000 69.029235
LeftHand -10.544031 0.000000 14.914881
LeftHandThumb1 -26.253704 0.000000 33.147579
Head 29.049617 4.376938 1.274019
1120
root -2.716114 33.175617 0.578214 4.659119 -1.649541 3.053452
RightUpLeg 2.897940 -4.723494 -2.966396
RightLeg 1.259726 -0.000000 -0.000000
RightFoot -12.857997 -4.329654 3.604289
RightToeBase 5.443506 -0.000000 -0.000000
LeftUpLeg 2.510883 2.947440 0.167283
LeftLeg 2.863961 -0.000000 -0.000000
LeftFoot -11.662213 2.630769 -9.646864
LeftToeBase 8.347228 -0.000000 -0.000000
Spine -10.483154 -1.714188 -0.501950
RightShoulder -19.782710 15.754300 -59.255712
RightArm 69.278113 51.358118 50.306253
RightForeArm 34.958407 0.000000 60.022528
RightHand 8.858900 -0.000000 4.631737
RightHandThumb1 -24.326973 -0.000000 -32.862282
LeftShoulder -25.428504 -15.504927 57.851851
LeftArm 72.904683 -62.090151 -57.981409
LeftForeArm -4.231971 0.000000 70.740068
LeftHand -10.755001 -0.000000 15.077398
LeftHandThumb1 -26.253704 0.000000 33.147579
Head 29.362909 4.262539 1.157062
